<?xml version="1.0" encoding="utf-8"?>
<!-- Generator: Adobe Illustrator 27.9.0, SVG Export Plug-In . SVG Version: 6.00 Build 0)  -->
<svg version="1.1" id="Layer_1" xmlns="http://www.w3.org/2000/svg" xmlns:xlink="http://www.w3.org/1999/xlink" x="0px" y="0px"
	 viewBox="0 0 16 16" style="enable-background:new 0 0 16 16;" xml:space="preserve">
<style type="text/css">
	.st0{fill:#FFFFFF;}
</style>
<path class="st0" d="M8.2,16H8c-4.4,0-8-3.7-7.9-8.1S3.7,0,8.2,0s8,3.7,7.9,8.1C16,12.4,12.5,16,8.2,16z M7.7,1.8
	C7.5,2.1,7.3,2.5,7.1,3.1C6.7,4.2,6.4,5.6,6.4,7.3h3.5C9.9,5.6,9.6,4.2,9.2,3.1C9,2.5,8.8,2.1,8.6,1.8C8.4,1.6,8.2,1.5,8.2,1.5h0
	C8.1,1.5,7.9,1.6,7.7,1.8z M4.9,7.2c0.1-1.8,0.3-3.4,0.8-4.6C5.7,2.3,5.9,2.1,6,1.8C3.6,2.6,1.8,4.7,1.5,7.2H4.9z M1.5,8.8
	c0.3,2.5,2,4.6,4.4,5.4c-0.1-0.3-0.2-0.5-0.3-0.8c-0.4-1.2-0.7-2.9-0.8-4.6C4.9,8.8,1.5,8.8,1.5,8.8z M6.4,8.8
	c0.1,1.6,0.3,3.1,0.7,4.1c0.2,0.6,0.5,1.1,0.7,1.3c0.2,0.2,0.3,0.3,0.4,0.3l0,0c0.1,0,0.2-0.1,0.4-0.3c0.2-0.3,0.5-0.7,0.7-1.3
	c0.4-1.1,0.6-2.5,0.7-4.1H6.4z M11.4,8.8c-0.1,1.8-0.3,3.4-0.8,4.6c-0.1,0.2-0.2,0.5-0.3,0.7c2.2-0.9,3.8-2.9,4.1-5.3H11.4L11.4,8.8
	z M14.5,7.2c-0.3-2.4-1.8-4.4-4.1-5.3c0.1,0.2,0.2,0.4,0.3,0.7c0.4,1.2,0.7,2.9,0.8,4.6H14.5z"/>
</svg>
