<?xml version="1.0" encoding="UTF-8"?><svg id="Layer_2" xmlns="http://www.w3.org/2000/svg" viewBox="0 0 20 20"><defs><style>.cls-1{fill:#b3b3b3;stroke-width:0px;}</style></defs><g id="Layer_1-2"><path class="cls-1" d="m12.5.13c.31-.18.69-.18,1,0l6,3.46c.31.18.5.51.5.87v14.54c0,.55-.45,1-1,1h-6c-.55,0-1-.45-1-1V1c0-.36.19-.69.5-.87Zm1.5,2.6v15.27h4V5.04l-4-2.31ZM1,20c-.55,0-1-.45-1-1V1C0,.45.45,0,1,0s1,.45,1,1v18c0,.55-.45,1-1,1Zm6,0c-.55,0-1-.45-1-1V1c0-.55.45-1,1-1s1,.45,1,1v18c0,.55-.45,1-1,1Z"/></g></svg>