<?xml version="1.0" encoding="UTF-8"?><svg id="Layer_2" xmlns="http://www.w3.org/2000/svg" viewBox="0 0 21.39 21.16"><defs><style>.cls-1{fill:#b3b3b3;stroke-width:0px;}</style></defs><g id="Layer_1-2"><path class="cls-1" d="m9.41,0C4.23,0,0,4.14,0,9.28s4.23,9.28,9.41,9.28c2.23,0,4.29-.77,5.91-2.06l4.35,4.35c.38.4,1.02.41,1.41.02.4-.38.41-1.02.02-1.41,0,0-.02-.02-.02-.02l-4.34-4.34c1.34-1.64,2.08-3.7,2.08-5.82C18.81,4.14,14.59,0,9.41,0h0ZM2,9.28C2,5.27,5.3,2,9.41,2s7.41,3.27,7.41,7.28-3.3,7.28-7.41,7.28-7.41-3.27-7.41-7.28h0Z"/></g></svg>